<?xml version="1.0" encoding="UTF-8" standalone="no"?>
<!DOCTYPE svg PUBLIC "-//W3C//DTD SVG 1.1//EN"
 "http://www.w3.org/Graphics/SVG/1.1/DTD/svg11.dtd">
<!-- Generated by graphviz version 2.43.0 (0)
 -->
<!-- Title: tickets Pages: 1 -->
<svg width="3445pt" height="332pt"
 viewBox="0.00 0.00 3445.00 332.00" xmlns="http://www.w3.org/2000/svg" xmlns:xlink="http://www.w3.org/1999/xlink">
<g id="graph0" class="graph" transform="scale(1 1) rotate(0) translate(4 328)">
<title>tickets</title>
<polygon fill="white" stroke="transparent" points="-4,4 -4,-328 3441,-328 3441,4 -4,4"/>
<!-- M1 -->
<g id="node1" class="node">
<title>M1</title>
<path fill="#c4ffd0" stroke="black" d="M981,-180C981,-180 470,-180 470,-180 464,-180 458,-174 458,-168 458,-168 458,-156 458,-156 458,-150 464,-144 470,-144 470,-144 981,-144 981,-144 987,-144 993,-150 993,-156 993,-156 993,-168 993,-168 993,-174 987,-180 981,-180"/>
<text text-anchor="middle" x="725.5" y="-158.3" font-family="sans-serif" font-size="14.00">M1: Spanning surface: genes/brains kinds + time axis + world_id wrapper</text>
</g>
<!-- M2 -->
<g id="node4" class="node">
<title>M2</title>
<path fill="#c4ffd0" stroke="black" d="M885,-108C885,-108 566,-108 566,-108 560,-108 554,-102 554,-96 554,-96 554,-84 554,-84 554,-78 560,-72 566,-72 566,-72 885,-72 885,-72 891,-72 897,-78 897,-84 897,-84 897,-96 897,-96 897,-102 891,-108 885,-108"/>
<text text-anchor="middle" x="725.5" y="-86.3" font-family="sans-serif" font-size="14.00">M2: Generated cheatlist / quick&#45;reference page</text>
</g>
<!-- M1&#45;&gt;M2 -->
<g id="edge4" class="edge">
<title>M1&#45;&gt;M2</title>
<path fill="none" stroke="black" d="M725.5,-143.7C725.5,-135.98 725.5,-126.71 725.5,-118.11"/>
<polygon fill="black" stroke="black" points="729,-118.1 725.5,-108.1 722,-118.1 729,-118.1"/>
</g>
<!-- M10 -->
<g id="node2" class="node">
<title>M10</title>
<path fill="#c4ffd0" stroke="black" d="M995,-324C995,-324 692,-324 692,-324 686,-324 680,-318 680,-312 680,-312 680,-300 680,-300 680,-294 686,-288 692,-288 692,-288 995,-288 995,-288 1001,-288 1007,-294 1007,-300 1007,-300 1007,-312 1007,-312 1007,-318 1001,-324 995,-324"/>
<text text-anchor="middle" x="843.5" y="-302.3" font-family="sans-serif" font-size="14.00">M10: Workspace memory &amp; storage lifecycle</text>
</g>
<!-- M11 -->
<g id="node3" class="node">
<title>M11</title>
<path fill="#c4ffd0" stroke="black" d="M365,-108C365,-108 12,-108 12,-108 6,-108 0,-102 0,-96 0,-96 0,-84 0,-84 0,-78 6,-72 12,-72 12,-72 365,-72 365,-72 371,-72 377,-78 377,-84 377,-84 377,-96 377,-96 377,-102 371,-108 365,-108"/>
<text text-anchor="middle" x="188.5" y="-86.3" font-family="sans-serif" font-size="14.00">M11: Brain node lookup by normalized name (Desc)</text>
</g>
<!-- M3 -->
<g id="node5" class="node">
<title>M3</title>
<path fill="#c4ffd0" stroke="black" d="M650,-324C650,-324 171,-324 171,-324 165,-324 159,-318 159,-312 159,-312 159,-300 159,-300 159,-294 165,-288 171,-288 171,-288 650,-288 650,-288 656,-288 662,-294 662,-300 662,-300 662,-312 662,-312 662,-318 656,-324 650,-324"/>
<text text-anchor="middle" x="410.5" y="-302.3" font-family="sans-serif" font-size="14.00">M3: Case&#45;insensitive name lookups (gene/world/species/zone/column)</text>
</g>
<!-- M3&#45;&gt;M11 -->
<g id="edge2" class="edge">
<title>M3&#45;&gt;M11</title>
<path fill="none" stroke="black" d="M295.47,-287.98C230.58,-271.85 154.66,-240.55 114.5,-180 105.66,-166.67 107.19,-158.23 114.5,-144 120.77,-131.79 131.31,-121.77 142.49,-113.85"/>
<polygon fill="black" stroke="black" points="144.66,-116.61 151.11,-108.2 140.83,-110.75 144.66,-116.61"/>
</g>
<!-- M4 -->
<g id="node6" class="node">
<title>M4</title>
<path fill="#c4ffd0" stroke="black" d="M910,-252C910,-252 541,-252 541,-252 535,-252 529,-246 529,-240 529,-240 529,-228 529,-228 529,-222 535,-216 541,-216 541,-216 910,-216 910,-216 916,-216 922,-222 922,-228 922,-228 922,-240 922,-240 922,-246 916,-252 910,-252"/>
<text text-anchor="middle" x="725.5" y="-230.3" font-family="sans-serif" font-size="14.00">M4: Unified child&#45;collection surface (+ remove gene())</text>
</g>
<!-- M3&#45;&gt;M4 -->
<g id="edge7" class="edge">
<title>M3&#45;&gt;M4</title>
<path fill="none" stroke="black" d="M487.15,-287.97C532.97,-277.78 591.32,-264.82 638.81,-254.26"/>
<polygon fill="black" stroke="black" points="639.77,-257.64 648.77,-252.05 638.25,-250.8 639.77,-257.64"/>
</g>
<!-- M4&#45;&gt;M1 -->
<g id="edge1" class="edge">
<title>M4&#45;&gt;M1</title>
<path fill="none" stroke="black" d="M725.5,-215.7C725.5,-207.98 725.5,-198.71 725.5,-190.11"/>
<polygon fill="black" stroke="black" points="729,-190.1 725.5,-180.1 722,-190.1 729,-190.1"/>
</g>
<!-- M4&#45;&gt;M2 -->
<g id="edge5" class="edge">
<title>M4&#45;&gt;M2</title>
<path fill="none" stroke="black" d="M907.69,-216C950.52,-208.11 987.75,-196.64 1001.5,-180 1040.32,-133.01 980.7,-110.56 907.06,-99.95"/>
<polygon fill="black" stroke="black" points="907.45,-96.47 897.07,-98.59 906.5,-103.41 907.45,-96.47"/>
</g>
<!-- M5 -->
<g id="node7" class="node">
<title>M5</title>
<path fill="#c4ffd0" stroke="black" d="M427.5,-180C427.5,-180 135.5,-180 135.5,-180 129.5,-180 123.5,-174 123.5,-168 123.5,-168 123.5,-156 123.5,-156 123.5,-150 129.5,-144 135.5,-144 135.5,-144 427.5,-144 427.5,-144 433.5,-144 439.5,-150 439.5,-156 439.5,-156 439.5,-168 439.5,-168 439.5,-174 433.5,-180 427.5,-180"/>
<text text-anchor="middle" x="281.5" y="-158.3" font-family="sans-serif" font-size="14.00">M5: Brain node&lt;&#45;&gt;synapse join navigation</text>
</g>
<!-- M4&#45;&gt;M5 -->
<g id="edge8" class="edge">
<title>M4&#45;&gt;M5</title>
<path fill="none" stroke="black" d="M617.45,-215.97C551.65,-205.59 467.53,-192.33 399.92,-181.67"/>
<polygon fill="black" stroke="black" points="400.07,-178.15 389.65,-180.05 398.98,-185.06 400.07,-178.15"/>
</g>
<!-- M7 -->
<g id="node9" class="node">
<title>M7</title>
<path fill="#c4ffd0" stroke="black" d="M1393,-180C1393,-180 1062,-180 1062,-180 1056,-180 1050,-174 1050,-168 1050,-168 1050,-156 1050,-156 1050,-150 1056,-144 1062,-144 1062,-144 1393,-144 1393,-144 1399,-144 1405,-150 1405,-156 1405,-156 1405,-168 1405,-168 1405,-174 1399,-180 1393,-180"/>
<text text-anchor="middle" x="1227.5" y="-158.3" font-family="sans-serif" font-size="14.00">M7: Bulk / element / NULL / structural write gaps</text>
</g>
<!-- M4&#45;&gt;M7 -->
<g id="edge9" class="edge">
<title>M4&#45;&gt;M7</title>
<path fill="none" stroke="black" d="M847.66,-215.97C922.51,-205.53 1018.34,-192.17 1095.02,-181.47"/>
<polygon fill="black" stroke="black" points="1095.81,-184.9 1105.23,-180.05 1094.84,-177.96 1095.81,-184.9"/>
</g>
<!-- M5&#45;&gt;M11 -->
<g id="edge3" class="edge">
<title>M5&#45;&gt;M11</title>
<path fill="none" stroke="black" d="M258.51,-143.7C246.69,-134.8 232.11,-123.82 219.32,-114.2"/>
<polygon fill="black" stroke="black" points="221.32,-111.32 211.22,-108.1 217.11,-116.91 221.32,-111.32"/>
</g>
<!-- M5&#45;&gt;M2 -->
<g id="edge6" class="edge">
<title>M5&#45;&gt;M2</title>
<path fill="none" stroke="black" d="M389.55,-143.97C455.35,-133.59 539.47,-120.33 607.08,-109.67"/>
<polygon fill="black" stroke="black" points="608.02,-113.06 617.35,-108.05 606.93,-106.15 608.02,-113.06"/>
</g>
<!-- M6 -->
<g id="node8" class="node">
<title>M6</title>
<path fill="#c4ffd0" stroke="black" d="M1494,-324C1494,-324 1037,-324 1037,-324 1031,-324 1025,-318 1025,-312 1025,-312 1025,-300 1025,-300 1025,-294 1031,-288 1037,-288 1037,-288 1494,-288 1494,-288 1500,-288 1506,-294 1506,-300 1506,-300 1506,-312 1506,-312 1506,-318 1500,-324 1494,-324"/>
<text text-anchor="middle" x="1265.5" y="-302.3" font-family="sans-serif" font-size="14.00">M6: Transfer: move semantics + body.id remap + full graft surface</text>
</g>
<!-- M8 -->
<g id="node10" class="node">
<title>M8</title>
<path fill="#c4ffd0" stroke="black" d="M1900.5,-324C1900.5,-324 1536.5,-324 1536.5,-324 1530.5,-324 1524.5,-318 1524.5,-312 1524.5,-312 1524.5,-300 1524.5,-300 1524.5,-294 1530.5,-288 1536.5,-288 1536.5,-288 1900.5,-288 1900.5,-288 1906.5,-288 1912.5,-294 1912.5,-300 1912.5,-300 1912.5,-312 1912.5,-312 1912.5,-318 1906.5,-324 1900.5,-324"/>
<text text-anchor="middle" x="1718.5" y="-302.3" font-family="sans-serif" font-size="14.00">M8: Save&#45;format drift capture &amp; write&#45;path hardening</text>
</g>
<!-- M9 -->
<g id="node11" class="node">
<title>M9</title>
<path fill="#c4ffd0" stroke="black" d="M2230.5,-324C2230.5,-324 1942.5,-324 1942.5,-324 1936.5,-324 1930.5,-318 1930.5,-312 1930.5,-312 1930.5,-300 1930.5,-300 1930.5,-294 1936.5,-288 1942.5,-288 1942.5,-288 2230.5,-288 2230.5,-288 2236.5,-288 2242.5,-294 2242.5,-300 2242.5,-300 2242.5,-312 2242.5,-312 2242.5,-318 2236.5,-324 2230.5,-324"/>
<text text-anchor="middle" x="2086.5" y="-302.3" font-family="sans-serif" font-size="14.00">M9: Live&#45;world supervision &amp; observability</text>
</g>
<!-- U1 -->
<g id="node12" class="node">
<title>U1</title>
<path fill="#c4ffd0" stroke="black" d="M2646.5,-324C2646.5,-324 2272.5,-324 2272.5,-324 2266.5,-324 2260.5,-318 2260.5,-312 2260.5,-312 2260.5,-300 2260.5,-300 2260.5,-294 2266.5,-288 2272.5,-288 2272.5,-288 2646.5,-288 2646.5,-288 2652.5,-288 2658.5,-294 2658.5,-300 2658.5,-300 2658.5,-312 2658.5,-312 2658.5,-318 2652.5,-324 2646.5,-324"/>
<text text-anchor="middle" x="2459.5" y="-302.3" font-family="sans-serif" font-size="14.00">U1: Registry mutators (rename/delete ws, delete node)</text>
</g>
<!-- U3 -->
<g id="node19" class="node">
<title>U3</title>
<path fill="#c4ffd0" stroke="black" d="M2793.5,-252C2793.5,-252 2623.5,-252 2623.5,-252 2617.5,-252 2611.5,-246 2611.5,-240 2611.5,-240 2611.5,-228 2611.5,-228 2611.5,-222 2617.5,-216 2623.5,-216 2623.5,-216 2793.5,-216 2793.5,-216 2799.5,-216 2805.5,-222 2805.5,-228 2805.5,-228 2805.5,-240 2805.5,-240 2805.5,-246 2799.5,-252 2793.5,-252"/>
<text text-anchor="middle" x="2708.5" y="-230.3" font-family="sans-serif" font-size="14.00">U3: Workspace endpoints</text>
</g>
<!-- U1&#45;&gt;U3 -->
<g id="edge23" class="edge">
<title>U1&#45;&gt;U3</title>
<path fill="none" stroke="black" d="M2520.09,-287.97C2555.64,-277.97 2600.72,-265.3 2637.88,-254.85"/>
<polygon fill="black" stroke="black" points="2638.95,-258.19 2647.63,-252.11 2637.06,-251.45 2638.95,-258.19"/>
</g>
<!-- U10 -->
<g id="node13" class="node">
<title>U10</title>
<path fill="#c4ffd0" stroke="black" d="M2955,-180C2955,-180 2730,-180 2730,-180 2724,-180 2718,-174 2718,-168 2718,-168 2718,-156 2718,-156 2718,-150 2724,-144 2730,-144 2730,-144 2955,-144 2955,-144 2961,-144 2967,-150 2967,-156 2967,-156 2967,-168 2967,-168 2967,-174 2961,-180 2955,-180"/>
<text text-anchor="middle" x="2842.5" y="-158.3" font-family="sans-serif" font-size="14.00">U10: Frontend foundation + col A</text>
</g>
<!-- U11 -->
<g id="node14" class="node">
<title>U11</title>
<path fill="#c4ffd0" stroke="black" d="M2754,-108C2754,-108 2453,-108 2453,-108 2447,-108 2441,-102 2441,-96 2441,-96 2441,-84 2441,-84 2441,-78 2447,-72 2453,-72 2453,-72 2754,-72 2754,-72 2760,-72 2766,-78 2766,-84 2766,-84 2766,-96 2766,-96 2766,-102 2760,-108 2754,-108"/>
<text text-anchor="middle" x="2603.5" y="-86.3" font-family="sans-serif" font-size="14.00">U11: Frontend worlds + history + add&#45;world</text>
</g>
<!-- U10&#45;&gt;U11 -->
<g id="edge12" class="edge">
<title>U10&#45;&gt;U11</title>
<path fill="none" stroke="black" d="M2784.34,-143.97C2750.37,-134.01 2707.32,-121.41 2671.74,-110.99"/>
<polygon fill="black" stroke="black" points="2672.5,-107.56 2661.92,-108.11 2670.53,-114.28 2672.5,-107.56"/>
</g>
<!-- U12 -->
<g id="node15" class="node">
<title>U12</title>
<path fill="#c4ffd0" stroke="black" d="M3040.5,-108C3040.5,-108 2880.5,-108 2880.5,-108 2874.5,-108 2868.5,-102 2868.5,-96 2868.5,-96 2868.5,-84 2868.5,-84 2868.5,-78 2874.5,-72 2880.5,-72 2880.5,-72 3040.5,-72 3040.5,-72 3046.5,-72 3052.5,-78 3052.5,-84 3052.5,-84 3052.5,-96 3052.5,-96 3052.5,-102 3046.5,-108 3040.5,-108"/>
<text text-anchor="middle" x="2960.5" y="-86.3" font-family="sans-serif" font-size="14.00">U12: Frontend notebook</text>
</g>
<!-- U10&#45;&gt;U12 -->
<g id="edge15" class="edge">
<title>U10&#45;&gt;U12</title>
<path fill="none" stroke="black" d="M2871.37,-143.88C2886.79,-134.72 2905.98,-123.34 2922.6,-113.48"/>
<polygon fill="black" stroke="black" points="2924.71,-116.3 2931.52,-108.19 2921.14,-110.28 2924.71,-116.3"/>
</g>
<!-- U13 -->
<g id="node16" class="node">
<title>U13</title>
<path fill="#c4ffd0" stroke="black" d="M3340,-108C3340,-108 3125,-108 3125,-108 3119,-108 3113,-102 3113,-96 3113,-96 3113,-84 3113,-84 3113,-78 3119,-72 3125,-72 3125,-72 3340,-72 3340,-72 3346,-72 3352,-78 3352,-84 3352,-84 3352,-96 3352,-96 3352,-102 3346,-108 3340,-108"/>
<text text-anchor="middle" x="3232.5" y="-86.3" font-family="sans-serif" font-size="14.00">U13: Frontend live nodes + logs</text>
</g>
<!-- U10&#45;&gt;U13 -->
<g id="edge17" class="edge">
<title>U10&#45;&gt;U13</title>
<path fill="none" stroke="black" d="M2937.41,-143.97C2994.85,-133.66 3068.19,-120.49 3127.38,-109.87"/>
<polygon fill="black" stroke="black" points="3128.28,-113.26 3137.51,-108.05 3127.05,-106.37 3128.28,-113.26"/>
</g>
<!-- U14 -->
<g id="node17" class="node">
<title>U14</title>
<path fill="#c4ffd0" stroke="black" d="M3058.5,-36C3058.5,-36 2862.5,-36 2862.5,-36 2856.5,-36 2850.5,-30 2850.5,-24 2850.5,-24 2850.5,-12 2850.5,-12 2850.5,-6 2856.5,0 2862.5,0 2862.5,0 3058.5,0 3058.5,0 3064.5,0 3070.5,-6 3070.5,-12 3070.5,-12 3070.5,-24 3070.5,-24 3070.5,-30 3064.5,-36 3058.5,-36"/>
<text text-anchor="middle" x="2960.5" y="-14.3" font-family="sans-serif" font-size="14.00">U14: Transfer + polish + e2e</text>
</g>
<!-- U11&#45;&gt;U14 -->
<g id="edge20" class="edge">
<title>U11&#45;&gt;U14</title>
<path fill="none" stroke="black" d="M2690.38,-71.97C2742.74,-61.7 2809.54,-48.6 2863.6,-38"/>
<polygon fill="black" stroke="black" points="2864.41,-41.41 2873.54,-36.05 2863.06,-34.54 2864.41,-41.41"/>
</g>
<!-- U12&#45;&gt;U14 -->
<g id="edge21" class="edge">
<title>U12&#45;&gt;U14</title>
<path fill="none" stroke="black" d="M2960.5,-71.7C2960.5,-63.98 2960.5,-54.71 2960.5,-46.11"/>
<polygon fill="black" stroke="black" points="2964,-46.1 2960.5,-36.1 2957,-46.1 2964,-46.1"/>
</g>
<!-- U13&#45;&gt;U14 -->
<g id="edge22" class="edge">
<title>U13&#45;&gt;U14</title>
<path fill="none" stroke="black" d="M3166.31,-71.97C3127.23,-61.91 3077.6,-49.14 3036.87,-38.65"/>
<polygon fill="black" stroke="black" points="3037.54,-35.21 3026.99,-36.11 3035.8,-41.99 3037.54,-35.21"/>
</g>
<!-- U2 -->
<g id="node18" class="node">
<title>U2</title>
<path fill="#c4ffd0" stroke="black" d="M3054,-324C3054,-324 2689,-324 2689,-324 2683,-324 2677,-318 2677,-312 2677,-312 2677,-300 2677,-300 2677,-294 2683,-288 2689,-288 2689,-288 3054,-288 3054,-288 3060,-288 3066,-294 3066,-300 3066,-300 3066,-312 3066,-312 3066,-318 3060,-324 3054,-324"/>
<text text-anchor="middle" x="2871.5" y="-302.3" font-family="sans-serif" font-size="14.00">U2: Daemon skeleton + /run + /health + embed shell</text>
</g>
<!-- U2&#45;&gt;U10 -->
<g id="edge10" class="edge">
<title>U2&#45;&gt;U10</title>
<path fill="none" stroke="black" d="M2868,-287.87C2863.04,-263.56 2853.9,-218.82 2848.02,-190.01"/>
<polygon fill="black" stroke="black" points="2851.44,-189.29 2846.01,-180.19 2844.58,-190.69 2851.44,-189.29"/>
</g>
<!-- U2&#45;&gt;U3 -->
<g id="edge24" class="edge">
<title>U2&#45;&gt;U3</title>
<path fill="none" stroke="black" d="M2831.63,-287.88C2809.34,-278.31 2781.38,-266.3 2757.74,-256.15"/>
<polygon fill="black" stroke="black" points="2758.81,-252.8 2748.24,-252.07 2756.05,-259.23 2758.81,-252.8"/>
</g>
<!-- U4 -->
<g id="node20" class="node">
<title>U4</title>
<path fill="#c4ffd0" stroke="black" d="M2688,-180C2688,-180 2477,-180 2477,-180 2471,-180 2465,-174 2465,-168 2465,-168 2465,-156 2465,-156 2465,-150 2471,-144 2477,-144 2477,-144 2688,-144 2688,-144 2694,-144 2700,-150 2700,-156 2700,-156 2700,-168 2700,-168 2700,-174 2694,-180 2688,-180"/>
<text text-anchor="middle" x="2582.5" y="-158.3" font-family="sans-serif" font-size="14.00">U4: Worlds + history endpoints</text>
</g>
<!-- U2&#45;&gt;U4 -->
<g id="edge25" class="edge">
<title>U2&#45;&gt;U4</title>
<path fill="none" stroke="black" d="M2865.16,-287.69C2856.78,-267.3 2840.02,-233.94 2814.5,-216 2795.65,-202.74 2749.17,-190.97 2702.72,-181.92"/>
<polygon fill="black" stroke="black" points="2703.29,-178.46 2692.81,-180.02 2701.98,-185.34 2703.29,-178.46"/>
</g>
<!-- U5 -->
<g id="node21" class="node">
<title>U5</title>
<path fill="#c4ffd0" stroke="black" d="M2526.5,-252C2526.5,-252 2398.5,-252 2398.5,-252 2392.5,-252 2386.5,-246 2386.5,-240 2386.5,-240 2386.5,-228 2386.5,-228 2386.5,-222 2392.5,-216 2398.5,-216 2398.5,-216 2526.5,-216 2526.5,-216 2532.5,-216 2538.5,-222 2538.5,-228 2538.5,-228 2538.5,-240 2538.5,-240 2538.5,-246 2532.5,-252 2526.5,-252"/>
<text text-anchor="middle" x="2462.5" y="-230.3" font-family="sans-serif" font-size="14.00">U5: Upload handler</text>
</g>
<!-- U2&#45;&gt;U5 -->
<g id="edge26" class="edge">
<title>U2&#45;&gt;U5</title>
<path fill="none" stroke="black" d="M2771.97,-287.97C2703.74,-276.29 2614.12,-260.95 2548.89,-249.79"/>
<polygon fill="black" stroke="black" points="2549.08,-246.27 2538.64,-248.03 2547.9,-253.17 2549.08,-246.27"/>
</g>
<!-- U6 -->
<g id="node22" class="node">
<title>U6</title>
<path fill="#c4ffd0" stroke="black" d="M3213.5,-180C3213.5,-180 2997.5,-180 2997.5,-180 2991.5,-180 2985.5,-174 2985.5,-168 2985.5,-168 2985.5,-156 2985.5,-156 2985.5,-150 2991.5,-144 2997.5,-144 2997.5,-144 3213.5,-144 3213.5,-144 3219.5,-144 3225.5,-150 3225.5,-156 3225.5,-156 3225.5,-168 3225.5,-168 3225.5,-174 3219.5,-180 3213.5,-180"/>
<text text-anchor="middle" x="3105.5" y="-158.3" font-family="sans-serif" font-size="14.00">U6: Notebook store + endpoints</text>
</g>
<!-- U2&#45;&gt;U6 -->
<g id="edge27" class="edge">
<title>U2&#45;&gt;U6</title>
<path fill="none" stroke="black" d="M2899.73,-287.87C2941.98,-262.23 3021.7,-213.85 3068.55,-185.43"/>
<polygon fill="black" stroke="black" points="3070.44,-188.37 3077.17,-180.19 3066.81,-182.39 3070.44,-188.37"/>
</g>
<!-- U8 -->
<g id="node24" class="node">
<title>U8</title>
<path fill="#c4ffd0" stroke="black" d="M3330,-252C3330,-252 3119,-252 3119,-252 3113,-252 3107,-246 3107,-240 3107,-240 3107,-228 3107,-228 3107,-222 3113,-216 3119,-216 3119,-216 3330,-216 3330,-216 3336,-216 3342,-222 3342,-228 3342,-228 3342,-240 3342,-240 3342,-246 3336,-252 3330,-252"/>
<text text-anchor="middle" x="3224.5" y="-230.3" font-family="sans-serif" font-size="14.00">U8: Node info + logs endpoints</text>
</g>
<!-- U2&#45;&gt;U8 -->
<g id="edge28" class="edge">
<title>U2&#45;&gt;U8</title>
<path fill="none" stroke="black" d="M2957.4,-287.97C3009.18,-277.7 3075.23,-264.6 3128.69,-254"/>
<polygon fill="black" stroke="black" points="3129.39,-257.43 3138.52,-252.05 3128.03,-250.56 3129.39,-257.43"/>
</g>
<!-- U3&#45;&gt;U10 -->
<g id="edge11" class="edge">
<title>U3&#45;&gt;U10</title>
<path fill="none" stroke="black" d="M2741.28,-215.88C2759.13,-206.55 2781.4,-194.92 2800.5,-184.94"/>
<polygon fill="black" stroke="black" points="2802.35,-187.92 2809.59,-180.19 2799.11,-181.72 2802.35,-187.92"/>
</g>
<!-- U4&#45;&gt;U11 -->
<g id="edge13" class="edge">
<title>U4&#45;&gt;U11</title>
<path fill="none" stroke="black" d="M2587.69,-143.7C2590.03,-135.9 2592.85,-126.51 2595.45,-117.83"/>
<polygon fill="black" stroke="black" points="2598.85,-118.69 2598.37,-108.1 2592.14,-116.68 2598.85,-118.69"/>
</g>
<!-- U5&#45;&gt;U11 -->
<g id="edge14" class="edge">
<title>U5&#45;&gt;U11</title>
<path fill="none" stroke="black" d="M2455.15,-215.88C2448.12,-196.59 2440.6,-165.16 2455.5,-144 2465.29,-130.1 2479.07,-119.83 2494.32,-112.24"/>
<polygon fill="black" stroke="black" points="2495.81,-115.41 2503.46,-108.08 2492.91,-109.04 2495.81,-115.41"/>
</g>
<!-- U6&#45;&gt;U12 -->
<g id="edge16" class="edge">
<title>U6&#45;&gt;U12</title>
<path fill="none" stroke="black" d="M3070.03,-143.88C3050.38,-134.39 3025.78,-122.51 3004.87,-112.42"/>
<polygon fill="black" stroke="black" points="3006.38,-109.26 2995.86,-108.07 3003.34,-115.57 3006.38,-109.26"/>
</g>
<!-- U7 -->
<g id="node23" class="node">
<title>U7</title>
<path fill="#c4ffd0" stroke="black" d="M3294.5,-324C3294.5,-324 3154.5,-324 3154.5,-324 3148.5,-324 3142.5,-318 3142.5,-312 3142.5,-312 3142.5,-300 3142.5,-300 3142.5,-294 3148.5,-288 3154.5,-288 3154.5,-288 3294.5,-288 3294.5,-288 3300.5,-288 3306.5,-294 3306.5,-300 3306.5,-300 3306.5,-312 3306.5,-312 3306.5,-318 3300.5,-324 3294.5,-324"/>
<text text-anchor="middle" x="3224.5" y="-302.3" font-family="sans-serif" font-size="14.00">U7: Node log capture</text>
</g>
<!-- U7&#45;&gt;U8 -->
<g id="edge29" class="edge">
<title>U7&#45;&gt;U8</title>
<path fill="none" stroke="black" d="M3224.5,-287.7C3224.5,-279.98 3224.5,-270.71 3224.5,-262.11"/>
<polygon fill="black" stroke="black" points="3228,-262.1 3224.5,-252.1 3221,-262.1 3228,-262.1"/>
</g>
<!-- U8&#45;&gt;U13 -->
<g id="edge18" class="edge">
<title>U8&#45;&gt;U13</title>
<path fill="none" stroke="black" d="M3228.56,-215.93C3230.81,-205.6 3233.37,-192.12 3234.5,-180 3236.43,-159.36 3235.79,-135.91 3234.74,-118.26"/>
<polygon fill="black" stroke="black" points="3238.22,-117.84 3234.05,-108.1 3231.24,-118.32 3238.22,-117.84"/>
</g>
<!-- U9 -->
<g id="node25" class="node">
<title>U9</title>
<path fill="#c4ffd0" stroke="black" d="M3425,-180C3425,-180 3294,-180 3294,-180 3288,-180 3282,-174 3282,-168 3282,-168 3282,-156 3282,-156 3282,-150 3288,-144 3294,-144 3294,-144 3425,-144 3425,-144 3431,-144 3437,-150 3437,-156 3437,-156 3437,-168 3437,-168 3437,-174 3431,-180 3425,-180"/>
<text text-anchor="middle" x="3359.5" y="-158.3" font-family="sans-serif" font-size="14.00">U9: Stub sim binary</text>
</g>
<!-- U9&#45;&gt;U13 -->
<g id="edge19" class="edge">
<title>U9&#45;&gt;U13</title>
<path fill="none" stroke="black" d="M3328.43,-143.88C3311.67,-134.64 3290.79,-123.13 3272.8,-113.21"/>
<polygon fill="black" stroke="black" points="3274.13,-109.95 3263.69,-108.19 3270.76,-116.08 3274.13,-109.95"/>
</g>
</g>
</svg>
