<?xml version="1.0" encoding="UTF-8" standalone="no"?>
<!DOCTYPE svg PUBLIC "-//W3C//DTD SVG 1.1//EN"
 "http://www.w3.org/Graphics/SVG/1.1/DTD/svg11.dtd">
<!-- Generated by graphviz version 2.43.0 (0)
 -->
<!-- Title: tickets Pages: 1 -->
<svg width="3691pt" height="332pt"
 viewBox="0.00 0.00 3691.00 332.00" xmlns="http://www.w3.org/2000/svg" xmlns:xlink="http://www.w3.org/1999/xlink">
<g id="graph0" class="graph" transform="scale(1 1) rotate(0) translate(4 328)">
<title>tickets</title>
<polygon fill="white" stroke="transparent" points="-4,4 -4,-328 3687,-328 3687,4 -4,4"/>
<!-- M1 -->
<g id="node1" class="node">
<title>M1</title>
<path fill="#eeeeee" stroke="black" d="M523,-180C523,-180 12,-180 12,-180 6,-180 0,-174 0,-168 0,-168 0,-156 0,-156 0,-150 6,-144 12,-144 12,-144 523,-144 523,-144 529,-144 535,-150 535,-156 535,-156 535,-168 535,-168 535,-174 529,-180 523,-180"/>
<text text-anchor="middle" x="267.5" y="-158.3" font-family="sans-serif" font-size="14.00">M1: Spanning surface: genes/brains kinds + time axis + world_id wrapper</text>
</g>
<!-- M2 -->
<g id="node3" class="node">
<title>M2</title>
<path fill="#eeeeee" stroke="black" d="M723,-108C723,-108 404,-108 404,-108 398,-108 392,-102 392,-96 392,-96 392,-84 392,-84 392,-78 398,-72 404,-72 404,-72 723,-72 723,-72 729,-72 735,-78 735,-84 735,-84 735,-96 735,-96 735,-102 729,-108 723,-108"/>
<text text-anchor="middle" x="563.5" y="-86.3" font-family="sans-serif" font-size="14.00">M2: Generated cheatlist / quick&#45;reference page</text>
</g>
<!-- M1&#45;&gt;M2 -->
<g id="edge2" class="edge">
<title>M1&#45;&gt;M2</title>
<path fill="none" stroke="black" d="M339.53,-143.97C382.41,-133.83 436.95,-120.93 481.48,-110.4"/>
<polygon fill="black" stroke="black" points="482.48,-113.76 491.4,-108.05 480.87,-106.95 482.48,-113.76"/>
</g>
<!-- M10 -->
<g id="node2" class="node">
<title>M10</title>
<path fill="#eeeeee" stroke="black" d="M1241,-324C1241,-324 938,-324 938,-324 932,-324 926,-318 926,-312 926,-312 926,-300 926,-300 926,-294 932,-288 938,-288 938,-288 1241,-288 1241,-288 1247,-288 1253,-294 1253,-300 1253,-300 1253,-312 1253,-312 1253,-318 1247,-324 1241,-324"/>
<text text-anchor="middle" x="1089.5" y="-302.3" font-family="sans-serif" font-size="14.00">M10: Workspace memory &amp; storage lifecycle</text>
</g>
<!-- M3 -->
<g id="node4" class="node">
<title>M3</title>
<path fill="#eeeeee" stroke="black" d="M896,-324C896,-324 417,-324 417,-324 411,-324 405,-318 405,-312 405,-312 405,-300 405,-300 405,-294 411,-288 417,-288 417,-288 896,-288 896,-288 902,-288 908,-294 908,-300 908,-300 908,-312 908,-312 908,-318 902,-324 896,-324"/>
<text text-anchor="middle" x="656.5" y="-302.3" font-family="sans-serif" font-size="14.00">M3: Case&#45;insensitive name lookups (gene/world/species/zone/column)</text>
</g>
<!-- M4 -->
<g id="node5" class="node">
<title>M4</title>
<path fill="#eeeeee" stroke="black" d="M841,-252C841,-252 472,-252 472,-252 466,-252 460,-246 460,-240 460,-240 460,-228 460,-228 460,-222 466,-216 472,-216 472,-216 841,-216 841,-216 847,-216 853,-222 853,-228 853,-228 853,-240 853,-240 853,-246 847,-252 841,-252"/>
<text text-anchor="middle" x="656.5" y="-230.3" font-family="sans-serif" font-size="14.00">M4: Unified child&#45;collection surface (+ remove gene())</text>
</g>
<!-- M3&#45;&gt;M4 -->
<g id="edge5" class="edge">
<title>M3&#45;&gt;M4</title>
<path fill="none" stroke="black" d="M656.5,-287.7C656.5,-279.98 656.5,-270.71 656.5,-262.11"/>
<polygon fill="black" stroke="black" points="660,-262.1 656.5,-252.1 653,-262.1 660,-262.1"/>
</g>
<!-- M4&#45;&gt;M1 -->
<g id="edge1" class="edge">
<title>M4&#45;&gt;M1</title>
<path fill="none" stroke="black" d="M561.84,-215.97C504.54,-205.66 431.39,-192.49 372.35,-181.87"/>
<polygon fill="black" stroke="black" points="372.71,-178.38 362.25,-180.05 371.47,-185.27 372.71,-178.38"/>
</g>
<!-- M4&#45;&gt;M2 -->
<g id="edge3" class="edge">
<title>M4&#45;&gt;M2</title>
<path fill="none" stroke="black" d="M622.18,-215.85C607.85,-207.02 592.28,-194.94 582.5,-180 570.49,-161.66 565.92,-137.05 564.25,-118.36"/>
<polygon fill="black" stroke="black" points="567.72,-117.88 563.57,-108.13 560.74,-118.34 567.72,-117.88"/>
</g>
<!-- M5 -->
<g id="node6" class="node">
<title>M5</title>
<path fill="#eeeeee" stroke="black" d="M895.5,-180C895.5,-180 603.5,-180 603.5,-180 597.5,-180 591.5,-174 591.5,-168 591.5,-168 591.5,-156 591.5,-156 591.5,-150 597.5,-144 603.5,-144 603.5,-144 895.5,-144 895.5,-144 901.5,-144 907.5,-150 907.5,-156 907.5,-156 907.5,-168 907.5,-168 907.5,-174 901.5,-180 895.5,-180"/>
<text text-anchor="middle" x="749.5" y="-158.3" font-family="sans-serif" font-size="14.00">M5: Brain node&lt;&#45;&gt;synapse join navigation</text>
</g>
<!-- M4&#45;&gt;M5 -->
<g id="edge6" class="edge">
<title>M4&#45;&gt;M5</title>
<path fill="none" stroke="black" d="M679.49,-215.7C691.31,-206.8 705.89,-195.82 718.68,-186.2"/>
<polygon fill="black" stroke="black" points="720.89,-188.91 726.78,-180.1 716.68,-183.32 720.89,-188.91"/>
</g>
<!-- M7 -->
<g id="node8" class="node">
<title>M7</title>
<path fill="#eeeeee" stroke="black" d="M1269,-180C1269,-180 938,-180 938,-180 932,-180 926,-174 926,-168 926,-168 926,-156 926,-156 926,-150 932,-144 938,-144 938,-144 1269,-144 1269,-144 1275,-144 1281,-150 1281,-156 1281,-156 1281,-168 1281,-168 1281,-174 1275,-180 1269,-180"/>
<text text-anchor="middle" x="1103.5" y="-158.3" font-family="sans-serif" font-size="14.00">M7: Bulk / element / NULL / structural write gaps</text>
</g>
<!-- M4&#45;&gt;M7 -->
<g id="edge7" class="edge">
<title>M4&#45;&gt;M7</title>
<path fill="none" stroke="black" d="M765.28,-215.97C831.66,-205.57 916.56,-192.27 984.7,-181.6"/>
<polygon fill="black" stroke="black" points="985.29,-185.06 994.62,-180.05 984.2,-178.14 985.29,-185.06"/>
</g>
<!-- M5&#45;&gt;M2 -->
<g id="edge4" class="edge">
<title>M5&#45;&gt;M2</title>
<path fill="none" stroke="black" d="M704,-143.88C678.12,-134.14 645.53,-121.87 618.26,-111.61"/>
<polygon fill="black" stroke="black" points="619.44,-108.31 608.85,-108.07 616.98,-114.87 619.44,-108.31"/>
</g>
<!-- M6 -->
<g id="node7" class="node">
<title>M6</title>
<path fill="#eeeeee" stroke="black" d="M1740,-324C1740,-324 1283,-324 1283,-324 1277,-324 1271,-318 1271,-312 1271,-312 1271,-300 1271,-300 1271,-294 1277,-288 1283,-288 1283,-288 1740,-288 1740,-288 1746,-288 1752,-294 1752,-300 1752,-300 1752,-312 1752,-312 1752,-318 1746,-324 1740,-324"/>
<text text-anchor="middle" x="1511.5" y="-302.3" font-family="sans-serif" font-size="14.00">M6: Transfer: move semantics + body.id remap + full graft surface</text>
</g>
<!-- M8 -->
<g id="node9" class="node">
<title>M8</title>
<path fill="#eeeeee" stroke="black" d="M2146.5,-324C2146.5,-324 1782.5,-324 1782.5,-324 1776.5,-324 1770.5,-318 1770.5,-312 1770.5,-312 1770.5,-300 1770.5,-300 1770.5,-294 1776.5,-288 1782.5,-288 1782.5,-288 2146.5,-288 2146.5,-288 2152.5,-288 2158.5,-294 2158.5,-300 2158.5,-300 2158.5,-312 2158.5,-312 2158.5,-318 2152.5,-324 2146.5,-324"/>
<text text-anchor="middle" x="1964.5" y="-302.3" font-family="sans-serif" font-size="14.00">M8: Save&#45;format drift capture &amp; write&#45;path hardening</text>
</g>
<!-- M9 -->
<g id="node10" class="node">
<title>M9</title>
<path fill="#eeeeee" stroke="black" d="M2476.5,-324C2476.5,-324 2188.5,-324 2188.5,-324 2182.5,-324 2176.5,-318 2176.5,-312 2176.5,-312 2176.5,-300 2176.5,-300 2176.5,-294 2182.5,-288 2188.5,-288 2188.5,-288 2476.5,-288 2476.5,-288 2482.5,-288 2488.5,-294 2488.5,-300 2488.5,-300 2488.5,-312 2488.5,-312 2488.5,-318 2482.5,-324 2476.5,-324"/>
<text text-anchor="middle" x="2332.5" y="-302.3" font-family="sans-serif" font-size="14.00">M9: Live&#45;world supervision &amp; observability</text>
</g>
<!-- U1 -->
<g id="node11" class="node">
<title>U1</title>
<path fill="#c4ffd0" stroke="black" d="M2892.5,-324C2892.5,-324 2518.5,-324 2518.5,-324 2512.5,-324 2506.5,-318 2506.5,-312 2506.5,-312 2506.5,-300 2506.5,-300 2506.5,-294 2512.5,-288 2518.5,-288 2518.5,-288 2892.5,-288 2892.5,-288 2898.5,-288 2904.5,-294 2904.5,-300 2904.5,-300 2904.5,-312 2904.5,-312 2904.5,-318 2898.5,-324 2892.5,-324"/>
<text text-anchor="middle" x="2705.5" y="-302.3" font-family="sans-serif" font-size="14.00">U1: Registry mutators (rename/delete ws, delete node)</text>
</g>
<!-- U3 -->
<g id="node18" class="node">
<title>U3</title>
<path fill="#c4ffd0" stroke="black" d="M3039.5,-252C3039.5,-252 2869.5,-252 2869.5,-252 2863.5,-252 2857.5,-246 2857.5,-240 2857.5,-240 2857.5,-228 2857.5,-228 2857.5,-222 2863.5,-216 2869.5,-216 2869.5,-216 3039.5,-216 3039.5,-216 3045.5,-216 3051.5,-222 3051.5,-228 3051.5,-228 3051.5,-240 3051.5,-240 3051.5,-246 3045.5,-252 3039.5,-252"/>
<text text-anchor="middle" x="2954.5" y="-230.3" font-family="sans-serif" font-size="14.00">U3: Workspace endpoints</text>
</g>
<!-- U1&#45;&gt;U3 -->
<g id="edge21" class="edge">
<title>U1&#45;&gt;U3</title>
<path fill="none" stroke="black" d="M2766.09,-287.97C2801.64,-277.97 2846.72,-265.3 2883.88,-254.85"/>
<polygon fill="black" stroke="black" points="2884.95,-258.19 2893.63,-252.11 2883.06,-251.45 2884.95,-258.19"/>
</g>
<!-- U10 -->
<g id="node12" class="node">
<title>U10</title>
<path fill="#c4ffd0" stroke="black" d="M3201,-180C3201,-180 2976,-180 2976,-180 2970,-180 2964,-174 2964,-168 2964,-168 2964,-156 2964,-156 2964,-150 2970,-144 2976,-144 2976,-144 3201,-144 3201,-144 3207,-144 3213,-150 3213,-156 3213,-156 3213,-168 3213,-168 3213,-174 3207,-180 3201,-180"/>
<text text-anchor="middle" x="3088.5" y="-158.3" font-family="sans-serif" font-size="14.00">U10: Frontend foundation + col A</text>
</g>
<!-- U11 -->
<g id="node13" class="node">
<title>U11</title>
<path fill="#c4ffd0" stroke="black" d="M3000,-108C3000,-108 2699,-108 2699,-108 2693,-108 2687,-102 2687,-96 2687,-96 2687,-84 2687,-84 2687,-78 2693,-72 2699,-72 2699,-72 3000,-72 3000,-72 3006,-72 3012,-78 3012,-84 3012,-84 3012,-96 3012,-96 3012,-102 3006,-108 3000,-108"/>
<text text-anchor="middle" x="2849.5" y="-86.3" font-family="sans-serif" font-size="14.00">U11: Frontend worlds + history + add&#45;world</text>
</g>
<!-- U10&#45;&gt;U11 -->
<g id="edge10" class="edge">
<title>U10&#45;&gt;U11</title>
<path fill="none" stroke="black" d="M3030.34,-143.97C2996.37,-134.01 2953.32,-121.41 2917.74,-110.99"/>
<polygon fill="black" stroke="black" points="2918.5,-107.56 2907.92,-108.11 2916.53,-114.28 2918.5,-107.56"/>
</g>
<!-- U12 -->
<g id="node14" class="node">
<title>U12</title>
<path fill="#c4ffd0" stroke="black" d="M3286.5,-108C3286.5,-108 3126.5,-108 3126.5,-108 3120.5,-108 3114.5,-102 3114.5,-96 3114.5,-96 3114.5,-84 3114.5,-84 3114.5,-78 3120.5,-72 3126.5,-72 3126.5,-72 3286.5,-72 3286.5,-72 3292.5,-72 3298.5,-78 3298.5,-84 3298.5,-84 3298.5,-96 3298.5,-96 3298.5,-102 3292.5,-108 3286.5,-108"/>
<text text-anchor="middle" x="3206.5" y="-86.3" font-family="sans-serif" font-size="14.00">U12: Frontend notebook</text>
</g>
<!-- U10&#45;&gt;U12 -->
<g id="edge13" class="edge">
<title>U10&#45;&gt;U12</title>
<path fill="none" stroke="black" d="M3117.37,-143.88C3132.79,-134.72 3151.98,-123.34 3168.6,-113.48"/>
<polygon fill="black" stroke="black" points="3170.71,-116.3 3177.52,-108.19 3167.14,-110.28 3170.71,-116.3"/>
</g>
<!-- U13 -->
<g id="node15" class="node">
<title>U13</title>
<path fill="#c4ffd0" stroke="black" d="M3586,-108C3586,-108 3371,-108 3371,-108 3365,-108 3359,-102 3359,-96 3359,-96 3359,-84 3359,-84 3359,-78 3365,-72 3371,-72 3371,-72 3586,-72 3586,-72 3592,-72 3598,-78 3598,-84 3598,-84 3598,-96 3598,-96 3598,-102 3592,-108 3586,-108"/>
<text text-anchor="middle" x="3478.5" y="-86.3" font-family="sans-serif" font-size="14.00">U13: Frontend live nodes + logs</text>
</g>
<!-- U10&#45;&gt;U13 -->
<g id="edge15" class="edge">
<title>U10&#45;&gt;U13</title>
<path fill="none" stroke="black" d="M3183.41,-143.97C3240.85,-133.66 3314.19,-120.49 3373.38,-109.87"/>
<polygon fill="black" stroke="black" points="3374.28,-113.26 3383.51,-108.05 3373.05,-106.37 3374.28,-113.26"/>
</g>
<!-- U14 -->
<g id="node16" class="node">
<title>U14</title>
<path fill="#c4ffd0" stroke="black" d="M3304.5,-36C3304.5,-36 3108.5,-36 3108.5,-36 3102.5,-36 3096.5,-30 3096.5,-24 3096.5,-24 3096.5,-12 3096.5,-12 3096.5,-6 3102.5,0 3108.5,0 3108.5,0 3304.5,0 3304.5,0 3310.5,0 3316.5,-6 3316.5,-12 3316.5,-12 3316.5,-24 3316.5,-24 3316.5,-30 3310.5,-36 3304.5,-36"/>
<text text-anchor="middle" x="3206.5" y="-14.3" font-family="sans-serif" font-size="14.00">U14: Transfer + polish + e2e</text>
</g>
<!-- U11&#45;&gt;U14 -->
<g id="edge18" class="edge">
<title>U11&#45;&gt;U14</title>
<path fill="none" stroke="black" d="M2936.38,-71.97C2988.74,-61.7 3055.54,-48.6 3109.6,-38"/>
<polygon fill="black" stroke="black" points="3110.41,-41.41 3119.54,-36.05 3109.06,-34.54 3110.41,-41.41"/>
</g>
<!-- U12&#45;&gt;U14 -->
<g id="edge19" class="edge">
<title>U12&#45;&gt;U14</title>
<path fill="none" stroke="black" d="M3206.5,-71.7C3206.5,-63.98 3206.5,-54.71 3206.5,-46.11"/>
<polygon fill="black" stroke="black" points="3210,-46.1 3206.5,-36.1 3203,-46.1 3210,-46.1"/>
</g>
<!-- U13&#45;&gt;U14 -->
<g id="edge20" class="edge">
<title>U13&#45;&gt;U14</title>
<path fill="none" stroke="black" d="M3412.31,-71.97C3373.23,-61.91 3323.6,-49.14 3282.87,-38.65"/>
<polygon fill="black" stroke="black" points="3283.54,-35.21 3272.99,-36.11 3281.8,-41.99 3283.54,-35.21"/>
</g>
<!-- U2 -->
<g id="node17" class="node">
<title>U2</title>
<path fill="#c4ffd0" stroke="black" d="M3300,-324C3300,-324 2935,-324 2935,-324 2929,-324 2923,-318 2923,-312 2923,-312 2923,-300 2923,-300 2923,-294 2929,-288 2935,-288 2935,-288 3300,-288 3300,-288 3306,-288 3312,-294 3312,-300 3312,-300 3312,-312 3312,-312 3312,-318 3306,-324 3300,-324"/>
<text text-anchor="middle" x="3117.5" y="-302.3" font-family="sans-serif" font-size="14.00">U2: Daemon skeleton + /run + /health + embed shell</text>
</g>
<!-- U2&#45;&gt;U10 -->
<g id="edge8" class="edge">
<title>U2&#45;&gt;U10</title>
<path fill="none" stroke="black" d="M3114,-287.87C3109.04,-263.56 3099.9,-218.82 3094.02,-190.01"/>
<polygon fill="black" stroke="black" points="3097.44,-189.29 3092.01,-180.19 3090.58,-190.69 3097.44,-189.29"/>
</g>
<!-- U2&#45;&gt;U3 -->
<g id="edge22" class="edge">
<title>U2&#45;&gt;U3</title>
<path fill="none" stroke="black" d="M3077.63,-287.88C3055.34,-278.31 3027.38,-266.3 3003.74,-256.15"/>
<polygon fill="black" stroke="black" points="3004.81,-252.8 2994.24,-252.07 3002.05,-259.23 3004.81,-252.8"/>
</g>
<!-- U4 -->
<g id="node19" class="node">
<title>U4</title>
<path fill="#c4ffd0" stroke="black" d="M2934,-180C2934,-180 2723,-180 2723,-180 2717,-180 2711,-174 2711,-168 2711,-168 2711,-156 2711,-156 2711,-150 2717,-144 2723,-144 2723,-144 2934,-144 2934,-144 2940,-144 2946,-150 2946,-156 2946,-156 2946,-168 2946,-168 2946,-174 2940,-180 2934,-180"/>
<text text-anchor="middle" x="2828.5" y="-158.3" font-family="sans-serif" font-size="14.00">U4: Worlds + history endpoints</text>
</g>
<!-- U2&#45;&gt;U4 -->
<g id="edge23" class="edge">
<title>U2&#45;&gt;U4</title>
<path fill="none" stroke="black" d="M3111.16,-287.69C3102.78,-267.3 3086.02,-233.94 3060.5,-216 3041.65,-202.74 2995.17,-190.97 2948.72,-181.92"/>
<polygon fill="black" stroke="black" points="2949.29,-178.46 2938.81,-180.02 2947.98,-185.34 2949.29,-178.46"/>
</g>
<!-- U5 -->
<g id="node20" class="node">
<title>U5</title>
<path fill="#c4ffd0" stroke="black" d="M2772.5,-252C2772.5,-252 2644.5,-252 2644.5,-252 2638.5,-252 2632.5,-246 2632.5,-240 2632.5,-240 2632.5,-228 2632.5,-228 2632.5,-222 2638.5,-216 2644.5,-216 2644.5,-216 2772.5,-216 2772.5,-216 2778.5,-216 2784.5,-222 2784.5,-228 2784.5,-228 2784.5,-240 2784.5,-240 2784.5,-246 2778.5,-252 2772.5,-252"/>
<text text-anchor="middle" x="2708.5" y="-230.3" font-family="sans-serif" font-size="14.00">U5: Upload handler</text>
</g>
<!-- U2&#45;&gt;U5 -->
<g id="edge24" class="edge">
<title>U2&#45;&gt;U5</title>
<path fill="none" stroke="black" d="M3017.97,-287.97C2949.74,-276.29 2860.12,-260.95 2794.89,-249.79"/>
<polygon fill="black" stroke="black" points="2795.08,-246.27 2784.64,-248.03 2793.9,-253.17 2795.08,-246.27"/>
</g>
<!-- U6 -->
<g id="node21" class="node">
<title>U6</title>
<path fill="#c4ffd0" stroke="black" d="M3459.5,-180C3459.5,-180 3243.5,-180 3243.5,-180 3237.5,-180 3231.5,-174 3231.5,-168 3231.5,-168 3231.5,-156 3231.5,-156 3231.5,-150 3237.5,-144 3243.5,-144 3243.5,-144 3459.5,-144 3459.5,-144 3465.5,-144 3471.5,-150 3471.5,-156 3471.5,-156 3471.5,-168 3471.5,-168 3471.5,-174 3465.5,-180 3459.5,-180"/>
<text text-anchor="middle" x="3351.5" y="-158.3" font-family="sans-serif" font-size="14.00">U6: Notebook store + endpoints</text>
</g>
<!-- U2&#45;&gt;U6 -->
<g id="edge25" class="edge">
<title>U2&#45;&gt;U6</title>
<path fill="none" stroke="black" d="M3145.73,-287.87C3187.98,-262.23 3267.7,-213.85 3314.55,-185.43"/>
<polygon fill="black" stroke="black" points="3316.44,-188.37 3323.17,-180.19 3312.81,-182.39 3316.44,-188.37"/>
</g>
<!-- U8 -->
<g id="node23" class="node">
<title>U8</title>
<path fill="#c4ffd0" stroke="black" d="M3575,-252C3575,-252 3364,-252 3364,-252 3358,-252 3352,-246 3352,-240 3352,-240 3352,-228 3352,-228 3352,-222 3358,-216 3364,-216 3364,-216 3575,-216 3575,-216 3581,-216 3587,-222 3587,-228 3587,-228 3587,-240 3587,-240 3587,-246 3581,-252 3575,-252"/>
<text text-anchor="middle" x="3469.5" y="-230.3" font-family="sans-serif" font-size="14.00">U8: Node info + logs endpoints</text>
</g>
<!-- U2&#45;&gt;U8 -->
<g id="edge26" class="edge">
<title>U2&#45;&gt;U8</title>
<path fill="none" stroke="black" d="M3203.16,-287.97C3254.68,-277.72 3320.38,-264.66 3373.63,-254.07"/>
<polygon fill="black" stroke="black" points="3374.64,-257.43 3383.76,-252.05 3373.27,-250.57 3374.64,-257.43"/>
</g>
<!-- U3&#45;&gt;U10 -->
<g id="edge9" class="edge">
<title>U3&#45;&gt;U10</title>
<path fill="none" stroke="black" d="M2987.28,-215.88C3005.13,-206.55 3027.4,-194.92 3046.5,-184.94"/>
<polygon fill="black" stroke="black" points="3048.35,-187.92 3055.59,-180.19 3045.11,-181.72 3048.35,-187.92"/>
</g>
<!-- U4&#45;&gt;U11 -->
<g id="edge11" class="edge">
<title>U4&#45;&gt;U11</title>
<path fill="none" stroke="black" d="M2833.69,-143.7C2836.03,-135.9 2838.85,-126.51 2841.45,-117.83"/>
<polygon fill="black" stroke="black" points="2844.85,-118.69 2844.37,-108.1 2838.14,-116.68 2844.85,-118.69"/>
</g>
<!-- U5&#45;&gt;U11 -->
<g id="edge12" class="edge">
<title>U5&#45;&gt;U11</title>
<path fill="none" stroke="black" d="M2701.15,-215.88C2694.12,-196.59 2686.6,-165.16 2701.5,-144 2711.29,-130.1 2725.07,-119.83 2740.32,-112.24"/>
<polygon fill="black" stroke="black" points="2741.81,-115.41 2749.46,-108.08 2738.91,-109.04 2741.81,-115.41"/>
</g>
<!-- U6&#45;&gt;U12 -->
<g id="edge14" class="edge">
<title>U6&#45;&gt;U12</title>
<path fill="none" stroke="black" d="M3316.03,-143.88C3296.38,-134.39 3271.78,-122.51 3250.87,-112.42"/>
<polygon fill="black" stroke="black" points="3252.38,-109.26 3241.86,-108.07 3249.34,-115.57 3252.38,-109.26"/>
</g>
<!-- U7 -->
<g id="node22" class="node">
<title>U7</title>
<path fill="#c4ffd0" stroke="black" d="M3539.5,-324C3539.5,-324 3399.5,-324 3399.5,-324 3393.5,-324 3387.5,-318 3387.5,-312 3387.5,-312 3387.5,-300 3387.5,-300 3387.5,-294 3393.5,-288 3399.5,-288 3399.5,-288 3539.5,-288 3539.5,-288 3545.5,-288 3551.5,-294 3551.5,-300 3551.5,-300 3551.5,-312 3551.5,-312 3551.5,-318 3545.5,-324 3539.5,-324"/>
<text text-anchor="middle" x="3469.5" y="-302.3" font-family="sans-serif" font-size="14.00">U7: Node log capture</text>
</g>
<!-- U7&#45;&gt;U8 -->
<g id="edge27" class="edge">
<title>U7&#45;&gt;U8</title>
<path fill="none" stroke="black" d="M3469.5,-287.7C3469.5,-279.98 3469.5,-270.71 3469.5,-262.11"/>
<polygon fill="black" stroke="black" points="3473,-262.1 3469.5,-252.1 3466,-262.1 3473,-262.1"/>
</g>
<!-- U8&#45;&gt;U13 -->
<g id="edge16" class="edge">
<title>U8&#45;&gt;U13</title>
<path fill="none" stroke="black" d="M3473.96,-215.95C3476.44,-205.63 3479.25,-192.15 3480.5,-180 3482.62,-159.37 3481.97,-135.92 3480.87,-118.27"/>
<polygon fill="black" stroke="black" points="3484.35,-117.84 3480.15,-108.11 3477.36,-118.34 3484.35,-117.84"/>
</g>
<!-- U9 -->
<g id="node24" class="node">
<title>U9</title>
<path fill="#c4ffd0" stroke="black" d="M3671,-180C3671,-180 3540,-180 3540,-180 3534,-180 3528,-174 3528,-168 3528,-168 3528,-156 3528,-156 3528,-150 3534,-144 3540,-144 3540,-144 3671,-144 3671,-144 3677,-144 3683,-150 3683,-156 3683,-156 3683,-168 3683,-168 3683,-174 3677,-180 3671,-180"/>
<text text-anchor="middle" x="3605.5" y="-158.3" font-family="sans-serif" font-size="14.00">U9: Stub sim binary</text>
</g>
<!-- U9&#45;&gt;U13 -->
<g id="edge17" class="edge">
<title>U9&#45;&gt;U13</title>
<path fill="none" stroke="black" d="M3574.43,-143.88C3557.67,-134.64 3536.79,-123.13 3518.8,-113.21"/>
<polygon fill="black" stroke="black" points="3520.13,-109.95 3509.69,-108.19 3516.76,-116.08 3520.13,-109.95"/>
</g>
</g>
</svg>
